<svg width="512" height="512" viewBox="0 0 48 48" fill="none" xmlns="http://www.w3.org/2000/svg">
  <rect width="48" height="48" rx="11" fill="url(#g)"/>
  <path d="M27.0149 30.4616C30.832 29.3974 32.847 27.2403 33.6909 26.3148C34.5349 25.3893 35.5898 26.3148 35.0624 27.5874C34.5349 28.8599 30.4882 34.7146 24.5422 35.9187C22.0902 36.4152 20.0839 36.4784 18.3687 36.0945C16.6331 35.706 15.2504 34.8719 14.0388 33.675C13.0683 32.7226 12.3565 31.2725 11.9772 29.7273C11.5952 28.1709 11.5226 26.407 11.9388 24.7739L11.939 24.7731L11.9391 24.7724C14.2344 15.8149 22.1812 11.8249 27.4235 11.6663L27.4239 11.6663C29.0731 11.617 30.3534 11.7642 31.4138 12.1489C32.4991 12.5426 33.2939 13.1632 33.9963 13.9496L33.9978 13.9512L33.9992 13.9529C34.9797 15.0599 35.4115 16.5213 35.3672 18.1699L35.3672 18.1713L35.3671 18.1726C35.2736 21.3912 33.0627 23.5425 30.444 23.8044L30.443 23.8045L30.442 23.8046C29.249 23.9212 28.0826 23.5793 27.2491 22.7025L27.2489 22.7023C26.3967 21.8054 26.0387 20.5185 26.0831 19.1191C26.1173 17.9021 26.5999 16.8563 27.1554 16.0746C27.2647 15.9208 27.1186 15.7149 26.9484 15.7964C25.6456 16.4207 24.093 17.8121 22.8052 20.754C22.2641 22.0081 21.9436 22.7738 21.56 24.9651C21.0355 27.9738 21.8699 29.725 22.8376 30.3709L22.8385 30.3715L22.8393 30.3721C23.5676 30.8603 24.9409 31.045 27.0128 30.4621L27.0138 30.4618L27.0149 30.4616Z" fill="white"/>
  <defs>
    <linearGradient id="g" x1="24" y1="0" x2="24" y2="48" gradientUnits="userSpaceOnUse">
      <stop stop-color="#FE871A"/>
      <stop offset="1" stop-color="#FEA021"/>
    </linearGradient>
  </defs>
</svg>
